:SAMPLES-PER-SECOND 30
:FULLY-SPECIFIED
:DEGREES
123
root  -54.6505 35.0346 30.2668 -170.659 47.2665 -179.407
RightUpLeg  -5.03729 -19.6302 -1.62968
RightLeg  3.60687 -4.04151 0.00666611
RightFoot  5.35755 0.0386057 -0.248484
RightToes  -22.8894 -0.0940459 -0.19853
Spine  -2.4774 3.33213 -5.40928
Spine1  -4.75156 6.06097 -10.0084
HEad  -71.4462 -20.6002 8.34794
LeftShoulder1  -1.94126e-019 -3.10601e-018 -2.51263e-017
LeftArm  -14.3726 20.7923 -69.7824
LeftForeArm  32.777 -12.4791 -2.1419
LeftHand  -0.336308 -0.538838 6.68633
RightShoulder  -4.96962e-017 0 -2.36833e-017
RightArm  29.6713 21.4468 51.5251
RightForeArm  44.7429 65.9763 20.9619
RightHand  1.0072 3.56139 12.7513
LeftUpLeg  -5.65081 -2.97641 1.28828
LeftLeg  -0.112225 13.9565 -0.916311
LeftFoot  8.00511 -0.135775 2.12686
LeftToes  -18.3804 1.48321e-006 1.01846e-007
124
root  -54.6479 35.03 30.2319 -170.817 46.9098 -179.51
RightUpLeg  -4.93468 -19.8253 -1.76686
RightLeg  3.77573 -4.19734 -0.00542997
RightFoot  5.31746 0.0383439 -0.243581
RightToes  -23.4743 -0.0941119 -0.19864
Spine  -2.24265 3.61108 -5.24542
Spine1  -4.42223 6.74088 -9.71757
HEad  -72.0493 -20.7546 7.45907
LeftShoulder1  -1.94126e-019 -3.10601e-018 -2.51263e-017
LeftArm  -13.3 20.5399 -70.5146
LeftForeArm  31.2401 -13.7465 -2.29102
LeftHand  -0.309972 -0.503824 6.20161
RightShoulder  -4.96962e-017 0 -2.36833e-017
RightArm  32.1591 13.462 55.4932
RightForeArm  46.2726 63.8774 18.5164
RightHand  0.984058 3.52912 12.5024
LeftUpLeg  -5.57949 -3.09832 1.20012
LeftLeg  -0.108629 13.7364 -0.901288
LeftFoot  8.05013 -0.134109 2.11326
LeftToes  -18.7344 1.48321e-006 1.01846e-007
125
root  -54.6662 35.0243 30.2047 -170.786 46.4254 -179.56
RightUpLeg  -4.92675 -20.1363 -1.81254
RightLeg  3.7972 -4.36354 -0.00729401
RightFoot  5.19766 0.0381177 -0.239173
RightToes  -23.1569 -0.0941832 -0.19873
Spine  -2.16295 3.51128 -5.19678
Spine1  -4.35974 6.63849 -9.66589
HEad  -72.2216 -20.0484 6.86257
LeftShoulder1  -1.94126e-019 -3.10601e-018 -2.51263e-017
LeftArm  -12.7481 21.3338 -70.6899
LeftForeArm  30.2442 -16.0997 -2.61197
LeftHand  -0.305378 -0.530738 6.0853
RightShoulder  -4.96962e-017 0 -2.36833e-017
RightArm  33.0341 7.11571 59.4474
RightForeArm  46.3897 60.0298 15.2986
RightHand  0.937416 3.93172 11.3611
LeftUpLeg  -5.69966 -3.42863 1.15973
LeftLeg  -0.106347 13.5949 -0.891642
LeftFoot  7.9697 -0.130889 2.07945
LeftToes  -18.3999 1.48321e-006 1.01846e-007
126
root  -54.6806 35.0094 30.1858 -170.691 46.2992 -179.519
RightUpLeg  -5.00233 -20.0938 -1.79814
RightLeg  3.8787 -4.51221 -0.0139573
RightFoot  5.10729 0.0380569 -0.237117
RightToes  -23.2386 -0.0942604 -0.1988
Spine  -2.14752 3.38695 -4.96859
Spine1  -4.38648 6.46239 -9.23499
HEad  -72.1622 -19.0277 5.91199
LeftShoulder1  -1.94126e-019 -3.10601e-018 -2.51263e-017
LeftArm  -12.2405 22.3632 -71.2381
LeftForeArm  29.4541 -17.253 -2.72216
LeftHand  -0.298375 -0.68644 5.80868
RightShoulder  -4.96962e-017 0 -2.36833e-017
RightArm  32.219 1.60832 62.266
RightForeArm  47.1753 56.5315 12.987
RightHand  0.811819 4.18114 9.53937
LeftUpLeg  -5.84976 -3.09756 1.14861
LeftLeg  0.0782615 13.1534 -0.821053
LeftFoot  7.74649 -0.122213 1.96651
LeftToes  -18.388 1.48321e-006 1.01846e-007
127
root  -54.7095 35.0001 30.1673 -170.545 46.2674 -179.537
RightUpLeg  -5.25673 -20.3315 -1.7998
RightLeg  4.03121 -4.32956 -0.0248663
RightFoot  5.0102 0.0362126 -0.209557
RightToes  -23.2077 -0.0943438 -0.198854
Spine  -2.2019 3.11806 -4.77538
Spine1  -4.51409 5.97052 -8.84763
HEad  -71.8728 -17.8731 5.36272
LeftShoulder1  -1.94126e-019 -3.10601e-018 -2.51263e-017
LeftArm  -11.75 23.3778 -71.686
LeftForeArm  29.1525 -17.4257 -2.70989
LeftHand  -0.298302 -0.752319 5.75078
RightShoulder  -4.96962e-017 0 -2.36833e-017
RightArm  31.0377 -2.7229 64.2879
RightForeArm  48.8601 53.7948 11.4089
RightHand  0.70186 4.36361 8.04931
LeftUpLeg  -6.12134 -2.80008 1.09189
LeftLeg  0.289429 12.7765 -0.751092
LeftFoot  7.61499 -0.114723 1.88525
LeftToes  -18.6542 1.48321e-006 1.01846e-007
128
root  -54.7317 34.9922 30.1442 -170.616 46.6964 -179.575
RightUpLeg  -5.27868 -19.8608 -1.91414
RightLeg  4.04248 -4.37801 -0.0260082
RightFoot  5.06186 0.036608 -0.213992
RightToes  -23.4584 -0.0944338 -0.198895
Spine  -2.23828 2.83587 -4.53766
Spine1  -4.58882 5.44172 -8.37944
HEad  -71.3081 -16.4307 4.7464
LeftShoulder1  -1.94126e-019 -3.10601e-018 -2.51263e-017
LeftArm  -11.0114 24.2756 -72.3057
LeftForeArm  27.8969 -16.3967 -2.55319
LeftHand  -0.319472 -0.252773 6.65065
RightShoulder  -4.96962e-017 0 -2.36833e-017
RightArm  30.2651 -5.73972 65.4696
RightForeArm  49.7375 51.8484 10.4425
RightHand  0.626302 4.35062 7.16563
LeftUpLeg  -6.19764 -2.70215 0.991955
LeftLeg  0.64077 13.0848 -0.689173
LeftFoot  7.44084 -0.110623 1.88904
LeftToes  -18.8921 1.48321e-006 1.01846e-007
129
root  -54.768 34.9666 30.1282 -170.69 47.3732 -179.609
RightUpLeg  -5.56411 -19.4649 -2.03539
RightLeg  4.45496 -4.11743 -0.053997
RightFoot  4.86949 0.0338882 -0.173891
RightToes  -23.4346 -0.094531 -0.198923
Spine  -2.27556 2.6234 -4.21733
Spine1  -4.64744 5.04585 -7.69564
HEad  -70.7666 -15.1793 3.91427
LeftShoulder1  -1.94126e-019 -3.10601e-018 -2.51263e-017
LeftArm  -11.8361 24.5761 -73.2449
LeftForeArm  30.0344 -13.9294 -2.20439
LeftHand  -0.308932 -0.756508 5.94897
RightShoulder  -4.96962e-017 0 -2.36833e-017
RightArm  28.0015 -8.4507 66.0185
RightForeArm  50.5674 50.8438 9.95863
RightHand  0.62262 4.5532 6.96332
LeftUpLeg  -6.36166 -1.85851 0.83705
LeftLeg  1.24788 12.8607 -0.542227
LeftFoot  7.00944 -0.0980136 1.76179
LeftToes  -18.6724 1.48321e-006 1.01846e-007
130
root  -54.7993 34.9594 30.1086 -170.831 48.0244 -179.691
RightUpLeg  -5.67718 -19.3409 -2.19715
RightLeg  4.58939 -3.62789 -0.0560024
RightFoot  4.91069 0.0311859 -0.134027
RightToes  -23.7772 -0.0946357 -0.198942
Spine  -2.28519 2.31141 -4.17496
Spine1  -4.67072 4.45466 -7.6004
HEad  -70.2823 -13.7218 3.93684
LeftShoulder1  -1.94126e-019 -3.10601e-018 -2.51263e-017
LeftArm  -13.1839 24.6783 -73.4767
LeftForeArm  32.2736 -12.2701 -2.05533
LeftHand  -0.333071 -0.877441 6.29364
RightShoulder  -4.96962e-017 0 -2.36833e-017
RightArm  24.7152 -10.957 67.1478
RightForeArm  50.3367 49.511 9.42696
RightHand  0.575016 4.32694 6.57497
LeftUpLeg  -6.38277 -1.94369 0.682408
LeftLeg  1.58885 13.5773 -0.491763
LeftFoot  6.8416 -0.0988351 1.81489
LeftToes  -18.5346 1.48321e-006 1.01846e-007
131
root  -54.8339 34.9351 30.1098 -170.848 49.0327 -179.736
RightUpLeg  -6.16737 -18.5749 -2.28165
RightLeg  5.11567 -3.43406 -0.0844571
RightFoot  4.71408 0.029003 -0.101568
RightToes  -23.7176 -0.0947484 -0.198954
Spine  -2.36305 2.1162 -3.97243
Spine1  -4.82106 4.09345 -7.1807
HEad  -69.8332 -12.2701 3.44122
LeftShoulder1  -1.94126e-019 -3.10601e-018 -2.51263e-017
LeftArm  -14.7541 24.952 -74.0993
LeftForeArm  33.8198 -10.7841 -1.87178
LeftHand  -0.355356 -0.752972 6.83315
RightShoulder  -4.96962e-017 0 -2.36833e-017
RightArm  21.6618 -13.1076 67.7505
RightForeArm  50.6325 48.5375 9.0322
RightHand  0.410231 3.881 4.86708
LeftUpLeg  -6.61932 -1.57067 0.538072
LeftLeg  2.23727 14.1661 -0.353905
LeftFoot  6.47431 -0.0927828 1.79896
LeftToes  -18.4445 1.48321e-006 1.01846e-007
132
root  -54.8564 34.9133 30.1096 -170.998 50.2529 -179.788
RightUpLeg  -6.56443 -17.659 -2.41503
RightLeg  5.67895 -3.15432 -0.108494
RightFoot  4.52716 0.0265297 -0.0649443
RightToes  -23.7312 -0.0948694 -0.198961
Spine  -2.33796 2.09035 -3.70077
Spine1  -4.76245 4.0713 -6.62246
HEad  -69.654 -11.1773 2.53277
LeftShoulder1  -1.94126e-019 -3.10601e-018 -2.51263e-017
LeftArm  -14.8416 25.1747 -74.7881
LeftForeArm  33.4654 -9.90988 -1.73584
LeftHand  -0.37963 -0.556898 7.51687
RightShoulder  -4.96962e-017 0 -2.36833e-017
RightArm  18.4765 -14.7867 68.1084
RightForeArm  51.1314 47.779 8.72469
RightHand  0.252042 3.57019 3.01276
LeftUpLeg  -6.67395 -0.580915 0.360285
LeftLeg  2.84589 14.345 -0.207512
LeftFoot  6.1349 -0.0844158 1.73673
LeftToes  -18.3978 1.48321e-006 1.01846e-007
133
root  -54.8653 34.9006 30.123 -171.096 51.488 -179.731
RightUpLeg  -6.83887 -16.6497 -2.45373
RightLeg  6.05447 -2.94996 -0.120744
RightFoot  4.44913 0.0250516 -0.0425254
RightToes  -23.7545 -0.0949992 -0.198966
Spine  -2.33692 1.93994 -3.47686
Spine1  -4.75241 3.79926 -6.1687
HEad  -69.5308 -9.85649 2.03142
LeftShoulder1  -1.94126e-019 -3.10601e-018 -2.51263e-017
LeftArm  -16.5236 25.5299 -75.2743
LeftForeArm  34.3639 -9.44513 -1.65548
LeftHand  -0.372925 -0.491844 7.46144
RightShoulder  -4.96962e-017 0 -2.36833e-017
RightArm  16.604 -15.812 68.4581
RightForeArm  50.8894 46.7505 8.37152
RightHand  0.131752 2.89751 1.62566
LeftUpLeg  -6.55895 0.165364 0.301067
LeftLeg  3.18391 14.7865 -0.127513
LeftFoot  5.8522 -0.0810288 1.71471
LeftToes  -18.1205 1.48321e-006 1.01846e-007
134
root  -54.8613 34.9186 30.1427 -171.081 52.7333 -179.55
RightUpLeg  -6.78314 -15.6271 -2.38721
RightLeg  5.73298 -2.7777 -0.0980636
RightFoot  4.73037 0.0254115 -0.0463556
RightToes  -23.6239 -0.0951384 -0.198971
Spine  -2.35723 1.74241 -3.46161
Spine1  -4.79731 3.41348 -6.15116
HEad  -69.4195 -8.45362 2.3749
LeftShoulder1  -1.94126e-019 -3.10601e-018 -2.51263e-017
LeftArm  -15.6546 26.1027 -74.8846
LeftForeArm  33.2643 -9.65408 -1.69267
LeftHand  -0.375653 -0.293257 7.76025
RightShoulder  -4.96962e-017 0 -2.36833e-017
RightArm  15.9663 -16.2572 69.2745
RightForeArm  50.6327 44.9342 7.76309
RightHand  0.0872608 2.57671 1.06832
LeftUpLeg  -6.08244 0.906581 0.340754
LeftLeg  2.75733 15.3061 -0.244436
LeftFoot  5.89447 -0.0840224 1.78155
LeftToes  -17.8115 1.48321e-006 1.01846e-007
135
root  -54.8537 34.9271 30.1673 -171.089 53.9817 -179.399
RightUpLeg  -6.86812 -14.8146 -2.33723
RightLeg  5.70296 -2.36506 -0.0821277
RightFoot  4.85855 0.0237231 -0.0208947
RightToes  -23.4957 -0.0952871 -0.198979
Spine  -2.34014 1.68887 -3.33595
Spine1  -4.75975 3.31175 -5.90094
HEad  -69.2776 -7.58952 2.31355
LeftShoulder1  -1.94126e-019 -3.10601e-018 -2.51263e-017
LeftArm  -14.5912 26.3164 -74.8096
LeftForeArm  32.9824 -10.0286 -1.75591
LeftHand  -0.375337 -0.42356 7.59142
RightShoulder  -4.96962e-017 0 -2.36833e-017
RightArm  15.0867 -16.5076 69.6581
RightForeArm  51.5009 43.7395 7.32996
RightHand  0.127443 3.05276 1.5246
LeftUpLeg  -5.73031 1.75397 0.359177
LeftLeg  2.58612 15.7037 -0.29695
LeftFoot  5.89436 -0.0861492 1.82522
LeftToes  -17.8321 1.48321e-006 1.01846e-007
136
root  -54.8528 34.9172 30.1882 -171.198 55.2565 -179.411
RightUpLeg  -7.20026 -13.7734 -2.39531
RightLeg  6.11322 -2.16152 -0.0904515
RightFoot  4.74262 0.022204 0.00216485
RightToes  -23.4645 -0.095446 -0.198991
Spine  -2.37385 1.72013 -3.04168
Spine1  -4.81258 3.381 -5.29943
HEad  -69.0157 -6.9306 1.7128
LeftShoulder1  -1.94126e-019 -3.10601e-018 -2.51263e-017
LeftArm  -13.6121 26.6029 -75.2541
LeftForeArm  32.7889 -10.6574 -1.85449
LeftHand  -0.35898 -0.444239 7.23947
RightShoulder  -4.96962e-017 0 -2.36833e-017
RightArm  13.9219 -16.8883 69.4647
RightForeArm  52.3062 43.3692 7.17724
RightHand  0.165558 3.2592 1.98436
LeftUpLeg  -5.62312 2.45131 0.276698
LeftLeg  2.87125 16.2601 -0.227361
LeftFoot  5.68681 -0.0862653 1.82861
LeftToes  -17.6609 1.48321e-006 1.01846e-007
137
root  -54.841 34.9529 30.2207 -171.093 56.0833 -179.168
RightUpLeg  -6.87727 -13.1013 -2.27024
RightLeg  5.34645 -1.94793 -0.0553755
RightFoot  5.2583 0.0228917 -0.00567572
RightToes  -23.4476 -0.0956154 -0.19901
Spine  -2.36636 1.57917 -3.14552
Spine1  -4.80576 3.08478 -5.52181
HEad  -69.0191 -6.21011 2.56988
LeftShoulder1  -1.94126e-019 -3.10601e-018 -2.51263e-017
LeftArm  -12.6765 26.1828 -74.4431
LeftForeArm  32.6522 -10.8689 -1.88453
LeftHand  -0.371691 -0.570835 7.3453
RightShoulder  -4.96962e-017 0 -2.36833e-017
RightArm  12.0325 -17.1907 70.6562
RightForeArm  51.861 41.5945 6.66129
RightHand  0.142689 3.06969 1.72953
LeftUpLeg  -5.0166 2.94454 0.406921
LeftLeg  1.98661 16.5708 -0.483871
LeftFoot  6.0131 -0.0948401 1.95517
LeftToes  -17.5748 1.48321e-006 1.01846e-007
